<svg width="100%" height="100%" id="svg" viewBox="0 0 1440 600" xmlns="http://www.w3.org/2000/svg" class="transition duration-300 ease-in-out delay-150"><path d="M 0,600 C 0,600 0,200 0,200 C 139.33333333333331,217.86666666666667 278.66666666666663,235.73333333333332 451,219 C 623.3333333333334,202.26666666666668 828.6666666666667,150.93333333333334 999,142 C 1169.3333333333333,133.06666666666666 1304.6666666666665,166.53333333333333 1440,200 C 1440,200 1440,600 1440,600 Z" stroke="none" stroke-width="0" fill="#0693e388" class="transition-all duration-300 ease-in-out delay-150 path-0"></path><path d="M 0,600 C 0,600 0,400 0,400 C 145.59999999999997,437.4666666666667 291.19999999999993,474.93333333333334 446,474 C 600.8000000000001,473.06666666666666 764.8,433.73333333333335 932,415 C 1099.2,396.26666666666665 1269.6,398.1333333333333 1440,400 C 1440,400 1440,600 1440,600 Z" stroke="none" stroke-width="0" fill="#0693e3ff" class="transition-all duration-300 ease-in-out delay-150 path-1"></path></svg>